<svg width="17" height="10" viewBox="0 0 17 10" fill="none" xmlns="http://www.w3.org/2000/svg">
<path d="M0.270093 0.244019C0.0476636 0.444976 0 0.545455 0 0.789474C0 1.03349 0.0476636 1.13397 0.270093 1.33493C0.443941 1.49199 0.669895 1.57895 0.904187 1.57895H16.0958C16.3301 1.57895 16.5561 1.49199 16.7299 1.33493C16.9523 1.13397 17 1.03349 17 0.789474C17 0.545455 16.9523 0.444976 16.7299 0.244019C16.5561 0.0869542 16.3301 0 16.0958 0H0.904186C0.669895 0 0.443941 0.0869542 0.270093 0.244019Z" fill="white"/>
<path d="M0.269841 4.45455C0.047619 4.6555 0 4.75598 0 5C0 5.24402 0.047619 5.3445 0.269841 5.54545C0.443519 5.70251 0.669335 5.78947 0.903495 5.78947H16.0806C16.3148 5.78947 16.5406 5.70251 16.7143 5.54545C17.0952 5.20096 17.0952 4.79904 16.7143 4.45455C16.5406 4.29749 16.3148 4.21053 16.0806 4.21053H0.903496C0.669335 4.21053 0.443519 4.29749 0.269841 4.45455Z" fill="white"/>
<path d="M0.270093 8.66507C0.0476636 8.86603 0 8.96651 0 9.21053C0 9.45455 0.0476636 9.55502 0.270093 9.75598C0.443941 9.91305 0.669895 10 0.904187 10H16.0958C16.3301 10 16.5561 9.91305 16.7299 9.75598C16.9523 9.55502 17 9.45455 17 9.21053C17 8.96651 16.9523 8.86603 16.7299 8.66507C16.5561 8.50801 16.3301 8.42105 16.0958 8.42105H0.904186C0.669895 8.42105 0.443941 8.50801 0.270093 8.66507Z" fill="white"/>
</svg>
