<svg width="40" height="40" viewBox="0 0 40 40" fill="none" xmlns="http://www.w3.org/2000/svg">
<path d="M1.26852 1.32407L0 2.59259L8.7037 11.2963L17.4074 20L8.7037 28.7037L0 37.4074L1.2963 38.7037L2.59259 40L11.2963 31.2963L20 22.5926L28.7037 31.2963L37.4074 40L38.7037 38.7037L40 37.4074L31.2963 28.7037L22.5926 20L31.2963 11.2963L40 2.59259L38.7037 1.2963L37.4074 0L28.7037 8.7037L20 17.4074L11.3148 8.72222C6.5463 3.9537 2.62037 0.0462952 2.59259 0.0462952C2.56481 0.0462952 1.97222 0.620369 1.26852 1.32407Z" fill="white"/>
</svg>
