<svg width="11" height="11" viewBox="0 0 11 11" fill="none" xmlns="http://www.w3.org/2000/svg">
<path d="M3.40113 0.113935C1.76071 0.548106 0.485412 1.85592 0.0938272 3.50789C-0.00142319 3.91559 -0.0120066 4.09561 0.00916019 4.72569C0.0356186 5.57285 0.109702 5.89583 0.421912 6.55239C1.258 8.31025 3.08892 9.33744 5.04685 9.14153C5.83531 9.06211 6.68198 8.74972 7.2429 8.33143L7.48103 8.15141L8.90978 9.5757C10.328 10.9894 10.3438 11 10.5661 11C10.8624 11 11 10.8623 11 10.5658C11 10.3434 10.9894 10.3276 9.57654 8.90856L8.15307 7.47897L8.3277 7.24071C8.75103 6.66887 9.06853 5.827 9.14791 5.04867C9.34899 3.10548 8.31182 1.25231 6.55498 0.415737C5.87764 0.0927553 5.58131 0.0292187 4.67643 0.00803947C3.97264 -0.0131397 3.82976 0.00274467 3.40113 0.113935ZM5.76652 1.06699C6.32744 1.2629 6.69256 1.50117 7.18998 1.99888C7.54982 2.35892 7.6874 2.53894 7.86732 2.89899C8.14249 3.46553 8.2642 3.96324 8.2642 4.56684C8.2642 5.17045 8.14249 5.66286 7.86732 6.2347C7.6874 6.60004 7.55511 6.77477 7.16353 7.16129C6.77723 7.5531 6.60261 7.68547 6.23748 7.8602C5.63423 8.1567 5.21089 8.2573 4.59706 8.2626C3.96734 8.2626 3.4858 8.14611 2.90371 7.86549C2.54388 7.68547 2.36396 7.5478 2.00413 7.18776C1.50671 6.69005 1.27387 6.3353 1.06221 5.74758C0.929914 5.39283 0.919331 5.29752 0.919331 4.56684C0.924623 3.84675 0.935206 3.73556 1.06221 3.38611C1.14158 3.16902 1.28446 2.86193 1.37971 2.69779C1.60196 2.31127 2.31634 1.59647 2.70263 1.37409C3.59163 0.849909 4.79814 0.728129 5.76652 1.06699Z" fill="#616161"/>
</svg>
