<svg width="17" height="16" viewBox="0 0 17 16" fill="none" xmlns="http://www.w3.org/2000/svg">
<path d="M0 6V0H2.52791C3.04577 0 3.48026 0.0859375 3.83136 0.257812C4.18465 0.429688 4.45126 0.666016 4.6312 0.966797C4.81333 1.26562 4.9044 1.60547 4.9044 1.98633C4.9044 2.37109 4.81333 2.71289 4.6312 3.01172C4.44907 3.31055 4.18026 3.5459 3.82477 3.71777C3.46929 3.8877 3.03151 3.97266 2.51145 3.97266H0.836052V3.0791H2.34687C2.64969 3.0791 2.89766 3.03223 3.09076 2.93848C3.28386 2.84473 3.4265 2.71582 3.51866 2.55176C3.61302 2.3877 3.6602 2.19922 3.6602 1.98633C3.6602 1.77344 3.61302 1.58594 3.51866 1.42383C3.4265 1.26172 3.28277 1.13574 3.08747 1.0459C2.89436 0.954102 2.6453 0.908203 2.34029 0.908203H1.22116V6H0Z" fill="#212121"/>
<path d="M8.24943 6H5.9651V0H8.29551C8.96479 0 9.53972 0.120117 10.0203 0.360352C10.503 0.598633 10.8739 0.941406 11.1328 1.38867C11.3918 1.83594 11.5212 2.37109 11.5212 2.99414C11.5212 3.61914 11.3907 4.15625 11.1295 4.60547C10.8706 5.05469 10.4965 5.39941 10.0071 5.63965C9.51997 5.87988 8.93407 6 8.24943 6ZM7.18626 5.05957H8.19018C8.65978 5.05957 9.05147 4.9834 9.36526 4.83105C9.67906 4.67676 9.91495 4.44727 10.0729 4.14258C10.2309 3.83594 10.3099 3.45313 10.3099 2.99414C10.3099 2.53516 10.2309 2.1543 10.0729 1.85156C9.91495 1.54688 9.68125 1.31934 9.37185 1.16895C9.06464 1.0166 8.68282 0.94043 8.22639 0.94043H7.18626V5.05957Z" fill="#212121"/>
<path d="M12.6815 6V0H17V0.911133H13.9027V2.54004H16.7038V3.45117H13.9027V6H12.6815Z" fill="#212121"/>
<rect y="15" width="17" height="1" fill="#212121"/>
<rect y="13" width="1" height="2" fill="#212121"/>
<rect x="16" y="13" width="1" height="2" fill="#212121"/>
<path d="M8.5 14L6.33494 11L10.6651 11L8.5 14Z" fill="#212121"/>
<rect x="8" y="8" width="1" height="3" fill="#212121"/>
</svg>
