<svg width="13" height="8" viewBox="0 0 13 8" fill="none" xmlns="http://www.w3.org/2000/svg">
<path d="M6.24109 7.02765L6.24058 7.02731C6.2292 7.01955 6.21457 7.00614 6.20354 6.99594C6.18976 6.9832 6.17175 6.96606 6.15002 6.94507C6.10648 6.903 6.04656 6.84405 5.97278 6.77082C5.82515 6.62427 5.62106 6.41951 5.37946 6.17586C4.89621 5.68851 4.26231 5.04497 3.62858 4.39898C2.99485 3.75299 2.36117 3.10441 1.87835 2.60697C1.63697 2.35827 1.43316 2.14721 1.28586 1.9931C1.21225 1.91607 1.15254 1.85305 1.10924 1.80657C1.06865 1.763 1.03689 1.72814 1.02487 1.71167L6.24109 7.02765ZM6.24109 7.02765C6.41612 7.14527 6.64524 7.11301 6.82406 6.97907L6.82407 6.97908M6.24109 7.02765L6.82407 6.97908M6.82407 6.97908L6.82553 6.97795M6.82407 6.97908L6.82553 6.97795M6.82553 6.97795C6.84009 6.96662 6.87193 6.93625 6.91238 6.89689C6.9555 6.85493 7.01445 6.7967 7.08729 6.7242C7.23301 6.57914 7.43505 6.37618 7.67861 6.13025C8.16578 5.63835 8.81954 4.97408 9.52222 4.25635L9.52232 4.25625M6.82553 6.97795L9.52232 4.25625M9.52232 4.25625L12.0716 1.64538L12.1 1.61624M9.52232 4.25625L12.1 1.61624M12.1 1.61624V1.57552M12.1 1.61624V1.57552M12.1 1.57552V1.38953C12.1 1.31099 12.0972 1.2456 12.077 1.18682C12.0555 1.12424 12.0179 1.07886 11.9718 1.03181C11.9259 0.984929 11.8812 0.946148 11.819 0.923854C11.7605 0.902869 11.6956 0.9 11.6186 0.9H11.4366H11.3945M12.1 1.57552L11.3945 0.9M11.3945 0.9L11.3651 0.930018M11.3945 0.9L11.3651 0.930018M11.3651 0.930018L6.50301 5.89286M11.3651 0.930018L6.50301 5.89286M6.50301 5.89286L1.64089 0.930018L1.61148 0.9H1.56945H1.38737C1.31046 0.9 1.24551 0.902869 1.18698 0.923854C1.12481 0.946148 1.08009 0.984929 1.03419 1.03181C0.850715 1.21922 0.862942 1.48977 1.02484 1.71163L6.50301 5.89286Z" fill="#212121" stroke="#212121" stroke-width="0.2"/>
</svg>
