<svg width="6" height="10" viewBox="0 0 6 10" fill="none" xmlns="http://www.w3.org/2000/svg">
<path fill-rule="evenodd" clip-rule="evenodd" d="M0.277005 0.0202772C0.183346 0.0541479 0.0768354 0.150421 0.0324896 0.241277C-0.0159389 0.340523 -0.00946304 0.504108 0.0468089 0.603158C0.0797314 0.661141 0.807506 1.3182 2.51692 2.8333C3.84981 4.01469 4.94036 4.98925 4.94036 4.99901C4.94036 5.00877 3.84981 5.98333 2.51692 7.16472C0.807506 8.67982 0.0797314 9.33688 0.0468089 9.39486C-0.0100664 9.49495 -0.0158787 9.65763 0.0337766 9.75938C0.0810587 9.85626 0.206373 9.96001 0.308339 9.9867C0.405437 10.0121 0.5394 10.0002 0.621756 9.95875C0.651984 9.94354 1.85803 8.88436 3.30183 7.605C5.36377 5.77792 5.93481 5.26194 5.96359 5.19987C6.0121 5.09526 6.01214 4.90287 5.96369 4.79839C5.93505 4.73663 5.35972 4.21682 3.30193 2.39345C1.85807 1.11405 0.650817 0.0541675 0.619142 0.0381513C0.535458 -0.00422618 0.368854 -0.0129285 0.277005 0.0202772Z" fill="#616161"/>
</svg>
