<svg width="180" height="32" viewBox="0 0 180 32" fill="none" xmlns="http://www.w3.org/2000/svg">
<path fill-rule="evenodd" clip-rule="evenodd" d="M135.338 0C128.03 0 121.263 1.93105 121.263 8.82759V22.8965C121.263 30.069 128.03 32 135.338 32C142.647 32 149.414 30.069 149.414 22.8965V9.10345C149.143 1.93104 142.647 0 135.338 0ZM135.338 6.62069C137.774 6.62069 138.316 7.72414 138.316 9.10345V23.4483C138.316 24.8276 137.774 25.931 135.338 25.931C132.902 25.931 132.361 24.8276 132.361 23.4483V9.10345C132.361 7.72414 132.902 6.62069 135.338 6.62069ZM152.12 0.551736V31.4483H158.617V12.4138L166.195 31.4483H180V0.551736H173.504L173.233 19.8621L165.383 0.551736H152.12ZM10.5564 7.17243C15.6992 7.17243 17.0527 7.44827 17.0527 9.65517C17.0527 12.1379 15.6992 12.4138 10.5564 12.4138V7.17243ZM39.2481 18.4828L41.1429 10.7586L43.3083 18.4828C48.4511 18.7586 52.782 19.8621 54.6767 20.9655L50.6166 0.827594H35.7294L30.8571 20.4138C24.9022 20.6896 20.5714 22.8965 15.9699 25.931C15.6992 26.2069 15.6993 25.931 15.4286 25.6552C14.3459 25.931 12.9925 25.931 10.8271 25.931V19.3103C15.6992 19.3103 17.3233 19.8621 17.3233 22.6207C17.3233 22.8966 17.3233 22.8965 17.3233 22.8965C19.218 21.5172 23.0075 19.8621 28.1504 19.0345C27.3383 17.3793 25.7143 16.2759 23.8196 15.4483C26.5264 14.6207 28.6917 13.5172 28.6917 8.27586C28.6917 1.93103 21.1128 0.827594 11.3685 0.827594H0V31.7241H11.3685C16.782 31.7241 20.8422 31.7241 23.8196 30.8965C24.6316 30.6207 25.4436 30.3448 25.985 29.7931C26.797 29.5172 27.609 28.9655 28.6917 28.6896L27.8797 31.4483H36.2707L37.0827 28.4138H45.203L46.015 31.4483H56.8421L56.5714 29.5172C61.1729 30.8965 66.5864 32 70.1052 32C79.0376 31.7241 84.1805 28.6896 84.1805 22.8965C84.1805 6.89656 64.9624 13.5172 64.9624 9.10345C64.9624 8.55173 65.2331 7.72414 66.3158 7.72414H86.3458V31.7241H96.9023V7.72414H105.293V1.10345H69.8346C61.7143 1.10345 54.1353 2.20691 54.1353 11.3104C54.1353 24 71.7293 19.3104 71.7293 25.1035C71.7293 27.8621 60.6316 25.1034 54.6767 23.1724C50.3459 22.069 44.1203 20.6896 38.7068 20.6896L39.2481 18.4828ZM118.015 0.551736H107.188V31.4483H117.744V0.551736H118.015Z" fill="#212121"/>
</svg>
