<svg width="18" height="10" viewBox="0 0 18 10" fill="none" xmlns="http://www.w3.org/2000/svg">
<path d="M9.4423 0.119098C9.9397 0.342558 17.7862 8.22571 17.9478 8.66022C18.097 9.06989 17.9105 9.70303 17.5872 9.87683C17.4629 9.95132 17.1396 10.001 16.8909 10.001C16.4308 10.001 16.2567 9.83959 12.7127 6.31389L9.00707 2.6144L5.30145 6.31389C1.75748 9.83959 1.58339 10.001 1.12329 10.001C0.501543 10.001 0.227974 9.83959 0.0663185 9.36784C-0.0331612 9.08231 -0.0207253 8.89609 0.103624 8.59815C0.290148 8.17606 8.36045 0.0694407 8.59672 0.0694407C8.67133 0.0694407 8.80811 0.0446118 8.90759 0.00736888C8.99464 -0.01746 9.2309 0.0321978 9.4423 0.119098Z" fill="#212121"/>
</svg>
