<svg width="18" height="10" viewBox="0 0 18 10" fill="none" xmlns="http://www.w3.org/2000/svg">
<path d="M9.4423 9.88188C9.9397 9.65842 17.7862 1.77526 17.9478 1.34076C18.097 0.931082 17.9105 0.297946 17.5872 0.124144C17.4629 0.0496576 17.1396 -7.52226e-08 16.8909 -9.69647e-08C16.4308 -1.37187e-07 16.2567 0.161387 12.7127 3.68708L9.00707 7.38658L5.30145 3.68708C1.75748 0.161386 1.58339 -1.43519e-06 1.12329 -1.47541e-06C0.501543 -1.52976e-06 0.227974 0.161386 0.0663185 0.633134C-0.0331612 0.918666 -0.0207253 1.10488 0.103624 1.40283C0.290148 1.82492 8.36045 9.93154 8.59672 9.93154C8.67133 9.93154 8.80811 9.95636 8.90759 9.99361C8.99464 10.0184 9.2309 9.96878 9.4423 9.88188Z" fill="#616161"/>
</svg>
