<svg width="10" height="10" viewBox="0 0 10 10" fill="none" xmlns="http://www.w3.org/2000/svg">
<path d="M0.425313 0.0859375C0.323496 0.140625 0.202099 0.246094 0.131611 0.34375C0.0258781 0.5 0.01413 0.542969 0.01413 0.835938C0.01413 1.12891 0.0258781 1.17578 0.127695 1.32031C0.198183 1.42188 0.311748 1.51953 0.437061 1.58203L0.636778 1.67969H3.8675H7.10214L3.58946 5.18359C0.750343 8.02344 0.0728704 8.71875 0.0337101 8.83984C0.00629795 8.92578 -0.00545013 9.10547 0.00238192 9.24219C0.0297941 9.70312 0.354824 10 0.824748 10C0.950061 10 1.11845 9.97266 1.20069 9.94141C1.3025 9.89844 2.38724 8.83984 4.84259 6.39453L8.33569 2.91016V6.13672V9.35938L8.43359 9.55859C8.5824 9.85156 8.78211 9.97656 9.13456 9.99219C9.48308 10.0078 9.7063 9.90625 9.88252 9.65625L10 9.48438V5V0.515625L9.88252 0.34375C9.81203 0.246094 9.69063 0.140625 9.58882 0.0859375L9.41651 0H5.00707H0.597618L0.425313 0.0859375Z" fill="white"/>
</svg>
