<svg width="74" height="10" viewBox="0 0 74 10" fill="none" xmlns="http://www.w3.org/2000/svg">
<path d="M17.4603 9.99862H15.6529L14.7126 7.49896H10.6705L9.70578 9.99862H7.89844L11.7207 0H13.6502L17.4603 9.99862ZM14.2852 5.98995L12.6977 1.63572L11.0857 5.98995H14.2852Z" fill="#212121"/>
<path d="M27.4391 9.99862H25.7482L20.1632 2.67244V9.99862H18.293V0H20.1248L25.5689 7.13035V0H27.4391V9.99862Z" fill="#212121"/>
<path d="M32.7213 9.99862C31.6578 9.99862 30.6933 9.76876 29.8276 9.30906C28.962 8.84935 28.4427 8.1483 28.2695 7.19441H30.1492C30.2852 7.68859 30.5943 8.05636 31.0642 8.2977C31.5341 8.53905 32.0906 8.66547 32.7089 8.66547C33.3767 8.66547 33.9579 8.55054 34.4278 8.30919C34.8977 8.06785 35.1326 7.72307 35.1326 7.26336C35.1326 6.88411 34.9719 6.5853 34.6504 6.36693C34.3289 6.14857 33.8713 5.97618 33.2654 5.86126L31.2497 5.47051C30.4336 5.3326 29.7905 5.04528 29.3083 4.62005C28.826 4.19482 28.591 3.6087 28.591 2.87317C28.591 2.27555 28.7765 1.75838 29.1351 1.33315C29.4938 0.90792 29.9884 0.574633 30.6067 0.34478C31.225 0.114927 31.9051 0 32.6594 0C33.5003 0 34.2299 0.137912 34.8359 0.413736C35.4418 0.68956 35.9241 1.04583 36.2579 1.47106C36.6042 1.90778 36.802 2.37898 36.8639 2.88466H35.0213C34.9224 2.3445 34.6627 1.95375 34.2547 1.71241C33.8466 1.47106 33.3148 1.35613 32.6842 1.35613C32.0906 1.35613 31.5836 1.47106 31.1632 1.7239C30.7427 1.97674 30.5325 2.31003 30.5325 2.75824C30.5325 3.4478 31.089 3.88452 32.2143 4.05691L34.1681 4.44766C36.0601 4.79244 36.9999 5.73484 36.9999 7.28635C36.9999 8.09083 36.5918 8.74592 35.788 9.25159C34.9843 9.75727 33.9579 9.99862 32.7089 9.99862H32.7213Z" fill="#212121"/>
<path d="M42.9392 9.99862H41.1584V1.52053H37.8301V0H46.1447V1.52053H42.9515V9.99862H42.9392Z" fill="#212121"/>
<path d="M51.9737 9.98714C50.985 9.98714 50.1118 9.80346 49.367 9.42464C48.6222 9.04582 48.0187 8.49481 47.6077 7.76012C47.184 7.02543 46.9785 6.11856 46.9785 5.02801C46.9785 3.42088 47.4408 2.1811 48.3525 1.30866C49.2642 0.43622 50.4842 0 51.9866 0C53.489 0 54.7474 0.447699 55.6334 1.35458C56.5195 2.26146 56.9561 3.47828 56.9561 5.01653C56.9561 6.55478 56.5066 7.81752 55.6206 8.68996C54.7217 9.5624 53.5147 9.99862 51.9994 9.99862L51.9737 9.98714ZM51.9737 8.58664C53.8999 8.58664 54.8758 7.40426 54.9015 5.03949C54.9015 3.78822 54.6447 2.86987 54.131 2.28441C53.6174 1.69896 52.8983 1.4005 51.9737 1.4005C51.0492 1.4005 50.3301 1.68748 49.8036 2.28441C49.2899 2.86987 49.0203 3.78822 49.0203 5.03949C49.0203 6.29075 49.2771 7.16319 49.8036 7.72568C50.3172 8.29965 51.0492 8.57516 51.9737 8.57516V8.58664Z" fill="#212121"/>
<path d="M73.9889 9.98711H66.9336V0H73.8919V1.43824H68.7277V4.24567H73.2858V5.6724H68.7156V8.53737H74.001V9.99862L73.9889 9.98711Z" fill="#212121"/>
<path d="M66.1026 10.0019H64.297L61.9453 5.95405L63.0487 4.58594L66.1026 10.0019Z" fill="#212121"/>
<path d="M62.9048 3.64425L61.5789 5.155L61.108 5.69702L59.6706 7.33463V9.99862H57.7871V0H59.6706V4.85515L63.9952 0H66.1018L63.2889 3.20602L62.9048 3.64425Z" fill="#212121"/>
<path d="M4.51992 4.3016L5.40452 5.75468L5.3924 5.76622V9.99862H3.61109V5.76622L0 0H1.9146L4.22909 3.82877L4.51992 4.3016Z" fill="#212121"/>
<path d="M9.1456 0L5.90116 4.99931L4.98828 3.5661L7.18414 0H9.1456Z" fill="#212121"/>
</svg>
