<svg width="30" height="30" viewBox="0 0 30 30" fill="none" xmlns="http://www.w3.org/2000/svg">
<path d="M13.095 0.079134C10.3878 0.430832 7.9092 1.46834 5.74113 3.14478C5.05556 3.67819 3.88949 4.82707 3.32111 5.53047C1.70385 7.53515 0.631538 9.90326 0.174487 12.4824C0.0104171 13.3968 -0.0540388 15.5949 0.0514345 16.5973C0.303399 18.9361 1.11789 21.228 2.38357 23.174C2.95781 24.0533 3.46174 24.6805 4.24693 25.4835C6.70211 28.004 9.80186 29.5281 13.3294 29.9384C14.1145 30.0322 16.0248 30.0146 16.8744 29.9149C21.2574 29.3698 25.1717 26.9138 27.6151 23.174C28.8457 21.2924 29.6308 19.1295 29.9121 16.8728C30.0293 15.9232 30.0293 14.0768 29.9121 13.1213C29.373 8.77196 26.9237 4.84465 23.2321 2.41793C21.3043 1.15182 19.1597 0.366354 16.8744 0.079134C15.9838 -0.0263767 13.9388 -0.0263767 13.095 0.079134ZM22.4469 8.76024C22.5348 8.80127 22.6462 8.93609 22.7048 9.05332L22.8044 9.2702L21.4449 15.7825C20.3668 20.9525 20.0562 22.3358 19.9507 22.5058C19.7339 22.8458 19.2769 22.9982 18.9077 22.8575C18.8257 22.8282 18.0053 22.2362 17.0737 21.5504C16.142 20.8645 15.2455 20.2022 15.0755 20.0791L14.7708 19.8563L13.5579 21.0052C12.3567 22.1424 12.1809 22.2655 12.0227 22.072C11.9816 22.0251 12.0227 21.4097 12.1633 20.0674C12.3508 18.2854 12.3742 18.1213 12.4973 18.0041C12.5676 17.9396 14.22 16.4273 16.1713 14.6453C18.1225 12.8634 19.7398 11.3628 19.7691 11.2983C19.8335 11.1694 19.7222 11.0111 19.5699 11.0111C19.5171 11.0111 17.3491 12.3534 14.7532 13.9947L10.0362 16.9841L7.96193 16.2807C6.53218 15.8001 5.85833 15.5422 5.78801 15.4601C5.64152 15.2843 5.65324 14.9619 5.81145 14.8036C5.89349 14.7215 6.73141 14.3757 7.99709 13.9009C9.128 13.4789 12.5793 12.1776 15.6732 11.0111C18.7671 9.83878 21.4684 8.82471 21.6793 8.74851C22.0602 8.6137 22.1598 8.6137 22.4469 8.76024Z" fill="#212121"/>
</svg>
