<svg width="30" height="31" viewBox="0 0 30 31" fill="none" xmlns="http://www.w3.org/2000/svg">
<path d="M12.4116 0.160707C9.14722 0.779818 6.69892 2.07432 4.39133 4.38192C1.57719 7.19606 0.184188 10.3901 0.0153393 14.3862C-0.0972263 17.1159 0.409319 19.5501 1.54905 21.8155L1.9571 22.6316L0.958076 26.3041C0.409319 28.3162 -0.0128021 29.9906 0.02941 30.0328C0.0575514 30.0609 1.73196 29.6529 3.73 29.1041L7.37432 28.1051L8.42962 28.5835C10.9342 29.7373 12.9604 30.1454 15.662 30.0328C17.9133 29.9343 19.7425 29.4981 21.5717 28.6117C25.5396 26.6699 28.4804 23.1241 29.6342 18.8325C29.9578 17.6224 30 17.2285 30 15.0194C30 12.8103 29.9578 12.4163 29.6342 11.2062C28.9025 8.5187 27.6643 6.36589 25.6662 4.38192C23.6682 2.36981 21.5013 1.11752 18.8419 0.428051C17.1675 -0.00814056 14.0016 -0.134777 12.4116 0.160707ZM10.892 8.33578C10.9905 8.46242 11.3563 9.29259 11.7222 10.179L12.3976 11.7831L12.0176 12.3037C11.8207 12.5992 11.5111 13.0213 11.3423 13.2324L11.0186 13.6264L11.3704 14.2877C11.9332 15.3852 13.9313 17.2566 15.268 17.9461C15.8871 18.2697 16.5343 18.537 16.675 18.537C16.8298 18.537 17.2942 18.1431 17.7585 17.6224C18.1947 17.1159 18.6309 16.7079 18.7153 16.7079C18.9826 16.7079 21.8531 18.0164 22.1063 18.2556C22.3455 18.4808 22.3596 18.5793 22.2048 19.325C22.0078 20.2537 21.5154 20.8306 20.4601 21.3934C18.9404 22.1954 16.0419 21.4778 13.2699 19.6205C11.9895 18.7622 9.89297 16.6375 8.97838 15.2726C7.69794 13.359 7.23361 11.8535 7.55723 10.559C7.78237 9.64436 8.59847 8.43428 9.16129 8.18101C9.71005 7.9418 10.6669 8.02623 10.892 8.33578Z" fill="#212121"/>
</svg>
